<svg xmlns="http://www.w3.org/2000/svg" width="24" height="24" fill="none" viewBox="0 0 24 24"><path fill="#FD366E" d="M24.443 16.432v5.478H10.752c-3.989 0-7.472-2.203-9.335-5.478q-.407-.715-.707-1.494A11 11 0 0 1 0 11.695v-1.48q.025-.382.075-.754.102-.766.306-1.494C1.661 3.37 5.82 0 10.751 0c4.934 0 9.092 3.37 10.371 7.967h-5.854c-.96-1.499-2.624-2.49-4.516-2.49s-3.555.991-4.516 2.49a5.5 5.5 0 0 0-.67 1.494 5.6 5.6 0 0 0-.202 1.494 5.5 5.5 0 0 0 1.69 3.983 5.32 5.32 0 0 0 3.698 1.494z"/><path fill="#FD366E" d="M24.443 9.46v5.478h-9.994a5.5 5.5 0 0 0 1.691-3.983 5.6 5.6 0 0 0-.203-1.494z"/></svg>