<svg xmlns="http://www.w3.org/2000/svg" width="64" height="64" viewBox="0 0 32 32" preserveAspectRatio="xMidYMid">
    <path fill="#ffffff" fill-rule="nonzero" d="M9.563 26.873c-1.22-.96-2.52-1.878-3.408-3.172-1.87-2.283-3.31-4.925-4.294-7.703-.595-1.806-.8-3.743-1.566-5.48-.802-1.26.138-2.64 1.52-3.04.615-.118 1.696-.7.39-.284-1.17.858-1.283-.78-.083-.884.82-.11 1.12-.78.84-1.382-.88-.574 2.132-1.203.616-2.06C2 1.168 5.786.84 4.852 2.774 4.63 4.26 7.498 2.5 6.832 4.218c.677.825 2.534.188 2.487 1.345.986.068 1.324.897 2.25.96.96.433 2.697.774 3.023 1.855-.95.753-3.153-1.555-3.26.53.288 3.08.214 6.252 1.34 9.185.533 1.775 1.825 3.173 2.99 4.556 1.117 1.354 2.63 2.308 4.17 3.11 1.352.638 2.81 1.06 4.283 1.326.597-.457 1.653-2.156 2.584-1.44.045.806-1.85 1.684-.09 1.595 1.035-.312 1.752.8 2.603-.204.785.93 3.26-.593 2.703 1.306-.755.487-1.856.193-2.612.863-1.247-.623-2.24.557-3.62.408-1.533.275-3.092.385-4.646.387-2.55-.2-5.153-.286-7.578-1.174-1.367-.397-2.7-1.175-3.9-1.954zm2.153.933c1.334.576 2.64 1.184 4.1 1.368 2.32.322 4.715.82 7.043.366-1.054-.476-2.143.185-3.193-.34-1.26.27-2.6-.07-3.9-.237-1.455-.648-3.026-1.094-4.388-1.936-1.703-.622.88.798 1.34.913 1.064.604-1.17-.3-1.486-.56-.892-.5-1.005-.396-.088.112l.56.314zm-2.54-1.794c1.293.48-.006-.91-.597-.83-.262-.455-1.003-.743-.48-.987-.94.326-.984-1.24-1.425-1.016-.994-.314-.387-1.426-1.57-2.11-.108-.72-1.176-1.343-1.516-2.428-.15-.556-1.207-2.15-.558-.666.552 1.43 1.524 2.653 2.334 3.875.628 1.164 1.37 2.38 2.514 3.107.386.37.758.937 1.302 1.053zm-3.724-4.09c.045-.195.236.422 0 0zm5.273 4.663c.286-.128-.412-.162 0 0zm.7.256c-.073-.353-.32.198 0 0zm.88.366c.418-.398-.645-.25 0 0zm1.506.84c.254-.375-.813-.14 0 0zm-2.89-2.015c.65-.42-.84-.006 0 0zm.66.33c-.02-.222-.235.1 0 0zm3.293 2.056c.53.334 3.092.732 1.488.137-.27.056-2.975-.766-1.488-.137zm-5.228-4.072c-.05-.222-.822-.246 0 0zm1.533.894c.4-.28-.828-.215 0 0zm1.3.8c.573-.216-.928-.217 0 0zM9.02 23.665c.62.476 2.506.06.95-.284-.707-.377-2.3-.635-1.214.227l.263.057zm4.32 2.637c.26-.44-1.086-.252 0 0zm-1.313-1.043c1.52.43-1.277-.96-.375-.16l.2.09.175.068zm2.632 1.52c1.44.014-1.3-.2 0 0zm-6.193-3.947c-.056-.268-.355.022 0 0zm8.627 5.312c.038-.484-.47.36 0 0zm-6.17-3.81c-.087-.255-.45-.01 0 0zm-2.32-1.67c.826-.05-1.13-.364 0 0zM5.856 20.89c-.103-.396-.898-.712 0 0zm7.212 4.577c-.15-.173-.07.037 0 0zm4.488 2.755c-.014-.264-.244.1 0 0zm-4.885-3.165c.08-.34-.705-.103 0 0zm-3.344-2.12c.615-.065-.985-.415 0 0zm5.656 3.515c.958-.38-.933-.185 0 0zm-2.942-1.997c1.103.142-1.313-.75-.243-.08l.243.08zm3.835 2.358c1.03-.615.69 1.443 1.748.174 1.043-.762-.9.942.384.136.93-.622 2.303.295 3.17.593.624-.03 1.23.54 1.87.193 1.23-.332-2.408-.492-1.454-1.08-1.126.328-1.958-.39-2.513-1.112-1.264-.292-2.724-.938-3.355-2.056-.257-.42.37.06-.222-.627-.76-.677-1.14-1.446-1.652-2.27-.61-.325-.683-1.284-.744-.032.005-.79-.737-1.323-.92-1.102-.003-.76.795-.38.236-.942-.12-.79-.516-1.61-.634-2.502-.185-.43-.026-1.35-.63-.377-.22 1.027-.073-1.262.27-.508.45-.77-.162-.68-.186-.573.293-.65.186-1.572-.077-1.22.156-.69.247-2.535-.233-2.208.29-.72.552-3.297-.712-2.315-.512.007-1.398.186-1.817.394 1.313.724-.132.262-.668.146-.07.67-.6.38-1.26.387 1.058.13-.515 1.08-1.12.712-.788.376.68 1.316.015 1.607.082.437-1.207-.158-1.106.854-.764-.322-.105 1.2.278.685 1.3.352.915 1.154.948 1.917-.212.444-1.046-1.044-.186-.975-.68-1.103-.75-.4-1.315.114-.13.037 1.44.73.454 1.07.867.134.892.893 1.068 1.372.45 1.67.856 2.69 1.5 3.835.725.334 1.612.6 2.318.835.79.28 1.568.584 2.368.732.282.02.592.073.85-.034.542.267.928-.552 1.45-.688.168.072.472-.042.45-.225z"/>
</svg>
